<?xml version="1.0" encoding="UTF-8" standalone="no"?><svg xmlns="http://www.w3.org/2000/svg" xmlns:xlink="http://www.w3.org/1999/xlink" fill="#000000" height="60" preserveAspectRatio="xMidYMid meet" version="1" viewBox="0.0 0.0 60.0 60.0" width="60" zoomAndPan="magnify"><g><g id="change1_1"><path d="M 26.152344 16.539062 L 27.75 11.738281 C 27.878906 11.355469 28.21875 11.082031 28.617188 11.050781 C 29.074219 11.019531 29.535156 11 30 11 C 30.464844 11 30.925781 11.019531 31.382812 11.050781 C 31.78125 11.082031 32.121094 11.355469 32.25 11.738281 L 33.847656 16.539062 L 26.152344 16.539062" fill="#00dd6e"/></g><g id="change1_2"><path d="M 17.761719 23.203125 L 15.496094 18.675781 C 15.316406 18.320312 15.359375 17.882812 15.625 17.578125 C 15.921875 17.230469 16.234375 16.894531 16.566406 16.566406 C 16.894531 16.234375 17.230469 15.921875 17.578125 15.625 C 17.882812 15.363281 18.320312 15.316406 18.675781 15.496094 L 23.207031 17.761719 L 17.761719 23.203125" fill="#00dd6e"/></g><g id="change1_3"><path d="M 16.539062 33.847656 L 11.738281 32.25 C 11.355469 32.121094 11.082031 31.78125 11.050781 31.382812 C 11.019531 30.925781 11 30.464844 11 30 C 11 29.535156 11.019531 29.074219 11.050781 28.617188 C 11.082031 28.21875 11.355469 27.878906 11.738281 27.75 L 16.539062 26.148438 L 16.539062 33.847656" fill="#00dd6e"/></g><g id="change1_4"><path d="M 23.207031 42.238281 L 18.675781 44.503906 C 18.320312 44.683594 17.882812 44.640625 17.578125 44.375 C 17.230469 44.078125 16.894531 43.765625 16.566406 43.433594 C 16.234375 43.105469 15.921875 42.769531 15.625 42.421875 C 15.359375 42.117188 15.316406 41.679688 15.496094 41.324219 L 17.761719 36.792969 L 23.207031 42.238281" fill="#00dd6e"/></g><g id="change1_5"><path d="M 33.847656 43.460938 L 32.25 48.261719 C 32.121094 48.644531 31.78125 48.917969 31.382812 48.949219 C 30.925781 48.980469 30.464844 49 30 49 C 29.535156 49 29.074219 48.980469 28.617188 48.949219 C 28.21875 48.917969 27.878906 48.644531 27.75 48.261719 L 26.152344 43.460938 L 33.847656 43.460938" fill="#00dd6e"/></g><g id="change1_6"><path d="M 42.238281 36.792969 L 44.503906 41.324219 C 44.683594 41.679688 44.640625 42.117188 44.375 42.421875 C 44.078125 42.769531 43.765625 43.105469 43.433594 43.433594 C 43.105469 43.765625 42.769531 44.078125 42.421875 44.375 C 42.117188 44.640625 41.679688 44.683594 41.324219 44.503906 L 36.792969 42.238281 L 42.238281 36.792969" fill="#00dd6e"/></g><g id="change1_7"><path d="M 43.460938 26.148438 L 48.261719 27.75 C 48.644531 27.878906 48.917969 28.21875 48.949219 28.617188 C 48.980469 29.074219 49 29.535156 49 30 C 49 30.464844 48.980469 30.925781 48.949219 31.382812 C 48.917969 31.78125 48.644531 32.121094 48.261719 32.25 L 43.460938 33.847656 L 43.460938 26.148438" fill="#00dd6e"/></g><g id="change1_8"><path d="M 36.792969 17.761719 L 41.324219 15.496094 C 41.679688 15.316406 42.117188 15.363281 42.421875 15.625 C 42.769531 15.921875 43.105469 16.234375 43.433594 16.566406 C 43.765625 16.894531 44.078125 17.230469 44.375 17.578125 C 44.640625 17.882812 44.683594 18.320312 44.503906 18.675781 L 42.238281 23.203125 L 36.792969 17.761719" fill="#00dd6e"/></g><g id="change2_1"><path d="M 30 36 C 26.691406 36 24 33.308594 24 30 C 24 26.691406 26.691406 24 30 24 C 33.308594 24 36 26.691406 36 30 C 36 33.308594 33.308594 36 30 36 Z M 30 16 C 22.28125 16 16 22.28125 16 30 C 16 37.71875 22.28125 44 30 44 C 37.71875 44 44 37.71875 44 30 C 44 22.28125 37.71875 16 30 16" fill="#00dd6e"/></g><g id="change3_1"><path d="M 30 41 C 29.449219 41 29 40.550781 29 40 C 29 39.449219 29.449219 39 30 39 C 33.195312 39 36.183594 37.277344 37.792969 34.496094 C 38.070312 34.019531 38.679688 33.855469 39.160156 34.136719 C 39.636719 34.410156 39.800781 35.023438 39.523438 35.503906 C 37.554688 38.894531 33.90625 41 30 41" fill="#6fcdaa"/></g><g id="change3_2"><path d="M 39.953125 32 C 39.917969 32 39.882812 31.996094 39.847656 31.996094 C 39.300781 31.941406 38.898438 31.449219 38.957031 30.898438 C 38.984375 30.601562 39 30.304688 39 30 C 39 29.449219 39.449219 29 40 29 C 40.550781 29 41 29.449219 41 30 C 41 30.371094 40.980469 30.738281 40.945312 31.101562 C 40.894531 31.617188 40.460938 32 39.953125 32" fill="#6fcdaa"/></g><g id="change4_1"><path d="M 30 58 C 14.558594 58 2 45.441406 2 30 C 2 23.136719 4.480469 16.605469 9 11.484375 L 9 17 C 9 17.550781 9.449219 18 10 18 C 10.550781 18 11 17.550781 11 17 L 11 9 C 11 8.449219 10.550781 8 10 8 L 2 8 C 1.449219 8 1 8.449219 1 9 C 1 9.550781 1.449219 10 2 10 L 7.648438 10 C 2.714844 15.507812 0 22.570312 0 30 C 0 46.542969 13.457031 60 30 60 C 30.550781 60 31 59.550781 31 59 C 31 58.449219 30.550781 58 30 58" fill="#00dd6e"/></g><g id="change4_2"><path d="M 58 50 L 52.347656 50 C 57.285156 44.492188 60 37.429688 60 30 C 60 13.457031 46.542969 0 30 0 C 29.449219 0 29 0.449219 29 1 C 29 1.550781 29.449219 2 30 2 C 45.441406 2 58 14.558594 58 30 C 58 36.863281 55.519531 43.394531 51 48.515625 L 51 43 C 51 42.449219 50.550781 42 50 42 C 49.449219 42 49 42.449219 49 43 L 49 51 C 49 51.550781 49.449219 52 50 52 L 58 52 C 58.550781 52 59 51.550781 59 51 C 59 50.449219 58.550781 50 58 50" fill="#00dd6e"/></g></g></svg>