<?xml version="1.0" encoding="UTF-8" standalone="no"?><svg xmlns="http://www.w3.org/2000/svg" xmlns:xlink="http://www.w3.org/1999/xlink" fill="#000000" height="254" preserveAspectRatio="xMidYMid meet" version="1" viewBox="122.6 81.0 179.3 254.0" width="179.3" zoomAndPan="magnify"><g id="change1_1"><path d="M131.533,176.498v3.992l72.126,17.514c0.33,0.08,0.653,0.158,0.976,0.237 c-0.497-0.402-1.012-0.813-1.56-1.237c-6.717-5.215-17.241-11.901-30.54-15.531C152.102,175.893,131.533,176.498,131.533,176.498z" fill="#00dd6e"/></g><g id="change1_2"><path d="M293.068,176.498c0,0-20.569-0.605-41.002,4.975c-13.299,3.63-23.823,10.315-30.54,15.531 c-0.549,0.426-1.063,0.839-1.56,1.242l73.102-17.755V176.498z" fill="#00dd6e"/></g><g id="change1_3"><path d="M216.302,335.07l80.625-19.582c2.634-0.641,5.034-3.692,5.034-6.403V189.799 c0-0.778-0.218-2.588-2.241-2.588c-0.286,0-0.59,0.039-0.905,0.115l-77.48,18.818c-1.165,0.283-3.136,0.751-5.033,1.152V335.07z" fill="#00dd6e"/></g><g id="change1_4"><path d="M208.302,207.363c-1.652-0.402-4.014-0.976-6.529-1.586l-78.37-19.029c-0.27,0.35-0.759,1.309-0.759,3.052 v119.287c0,2.711,2.399,5.763,5.034,6.403l80.625,19.582V207.363z" fill="#00dd6e"/></g><g id="change1_5"><path d="M184.646,138.488c0,9.967,5.331,18.686,13.296,23.469v10.917c0,2.336,1.893,4.229,4.229,4.229h19.665 c2.336,0,4.229-1.893,4.229-4.229v-10.917c7.965-4.783,13.296-13.502,13.296-23.469c0-15.109-12.248-27.357-27.357-27.357 C196.894,111.13,184.646,123.379,184.646,138.488z" fill="#00dd6e"/></g><g id="change1_6"><path d="M223.112,183.006c0-1.388-1.126-2.514-2.514-2.514h-16.615c-1.388,0-2.514,1.125-2.514,2.514 c0,1.389,1.125,2.514,2.514,2.514h16.615C221.986,185.52,223.112,184.395,223.112,183.006z" fill="#00dd6e"/></g><g id="change1_7"><path d="M203.075,188.753c2.43,1.877,4.36,3.567,5.737,4.85h6.978c1.377-1.272,3.306-2.962,5.737-4.85 c-0.292-0.115-0.605-0.177-0.928-0.177h-16.616C203.659,188.576,203.357,188.638,203.075,188.753z" fill="#00dd6e"/></g><g id="change1_8"><path d="M215.961,99.991v-14.95c0-2.209-1.791-4-4-4s-4,1.791-4,4v14.95c0,2.209,1.791,4,4,4 S215.961,102.2,215.961,99.991z" fill="#00dd6e"/></g><g id="change1_9"><path d="M176.963,97.974c-1.563-1.563-4.095-1.563-5.657,0c-1.562,1.562-1.562,4.095,0,5.656l10.571,10.571 c0.781,0.781,1.805,1.172,2.829,1.172s2.047-0.391,2.829-1.172c1.562-1.562,1.562-4.095,0-5.656L176.963,97.974z" fill="#00dd6e"/></g><g id="change1_10"><path d="M241.764,113.696l10.571-10.571c1.562-1.562,1.562-4.095,0-5.656c-1.563-1.563-4.095-1.563-5.657,0 l-10.571,10.571c-1.562,1.562-1.562,4.095,0,5.656c0.781,0.781,1.805,1.172,2.829,1.172S240.983,114.477,241.764,113.696z" fill="#00dd6e"/></g></svg>