<?xml version="1.0" encoding="UTF-8" standalone="no"?><svg xmlns="http://www.w3.org/2000/svg" xmlns:xlink="http://www.w3.org/1999/xlink" fill="#000000" height="75.6" preserveAspectRatio="xMidYMid meet" version="1" viewBox="12.5 11.9 75.2 75.6" width="75.2" zoomAndPan="magnify"><g fill="#4c4756" id="change1_1"><path d="M 74.878906 71.492188 L 76.996094 84.605469 L 64.75 78.519531 C 60.125 80.632812 55.160156 81.707031 50 81.707031 C 31.003906 81.707031 15.546875 66.84375 15.546875 48.570312 C 15.546875 30.296875 31.003906 15.433594 50 15.433594 C 68.996094 15.433594 84.453125 30.296875 84.453125 48.570312 C 84.453125 57.160156 81.050781 65.296875 74.878906 71.492188 Z M 87.492188 47.851562 C 87.121094 27.707031 69.816406 11.902344 48.839844 12.519531 C 28.695312 13.109375 12.5 29.023438 12.5 48.503906 C 12.5 68.355469 29.324219 84.503906 50 84.503906 C 54.65625 84.503906 59.164062 83.707031 63.441406 82.121094 C 64.738281 81.644531 66.183594 81.710938 67.417969 82.324219 L 77.507812 87.339844 C 77.71875 87.449219 77.953125 87.5 78.183594 87.5 C 78.488281 87.5 78.789062 87.410156 79.042969 87.230469 C 79.496094 86.917969 79.726562 86.394531 79.644531 85.863281 L 77.894531 75.054688 C 77.683594 73.738281 78.078125 72.402344 78.960938 71.375 C 84.628906 64.777344 87.652344 56.507812 87.492188 47.851562" fill="inherit"/><path d="M 44.339844 73.921875 C 41.488281 73.921875 39.394531 72.230469 41.394531 64.785156 L 44.667969 51.585938 C 45.238281 49.472656 45.335938 48.628906 44.667969 48.628906 C 43.808594 48.628906 40.105469 50.085938 37.914062 51.527344 L 36.484375 49.242188 C 43.433594 43.578125 51.425781 40.253906 54.851562 40.253906 C 57.707031 40.253906 58.183594 43.550781 56.757812 48.628906 L 53.003906 62.503906 C 52.335938 64.957031 52.625 65.800781 53.289062 65.800781 C 54.148438 65.800781 56.953125 64.78125 59.714844 62.667969 L 61.332031 64.78125 C 54.574219 71.378906 47.195312 73.921875 44.339844 73.921875 Z M 55.476562 23.984375 C 59.09375 23.984375 60.902344 26.351562 60.902344 29.0625 C 60.902344 32.441406 57.761719 35.574219 53.671875 35.574219 C 50.242188 35.574219 48.242188 33.628906 48.339844 30.414062 C 48.339844 27.707031 50.71875 23.984375 55.476562 23.984375 Z M 81.523438 48.570312 C 81.523438 31.914062 67.382812 18.363281 50 18.363281 C 32.617188 18.363281 18.476562 31.914062 18.476562 48.570312 C 18.476562 65.226562 32.617188 78.777344 50 78.777344 C 54.738281 78.777344 59.292969 77.792969 63.539062 75.855469 C 63.925781 75.675781 64.339844 75.589844 64.753906 75.589844 C 65.199219 75.589844 65.644531 75.691406 66.054688 75.898438 L 73.195312 79.445312 L 71.972656 71.886719 C 71.832031 71.011719 72.121094 70.109375 72.753906 69.476562 C 78.410156 63.820312 81.523438 56.398438 81.523438 48.570312" fill="inherit"/></g></svg>