<?xml version="1.0" encoding="UTF-8" standalone="no"?><svg xmlns="http://www.w3.org/2000/svg" xmlns:xlink="http://www.w3.org/1999/xlink" fill="#000000" height="1189.6" preserveAspectRatio="xMidYMid meet" version="1" viewBox="450.2 406.1 1099.7 1189.6" width="1099.7" zoomAndPan="magnify"><g><g id="change1_1"><path d="M 904.648438 605.019531 C 860.652344 605.019531 827.480469 644.578125 827.480469 697.019531 C 827.480469 724.871094 840.074219 820.351562 999.980469 892.550781 C 1159.890625 820.351562 1172.480469 724.871094 1172.480469 697.019531 C 1172.480469 644.578125 1139.308594 605.019531 1095.320312 605.019531 C 1043.089844 605.019531 1016.230469 644.050781 1015.101562 645.71875 C 1011.730469 650.761719 1006.050781 653.808594 1000.019531 653.808594 C 999.980469 653.808594 999.945312 653.808594 999.910156 653.808594 C 993.84375 653.769531 988.203125 650.761719 984.867188 645.71875 C 983.730469 644.050781 956.875 605.019531 904.648438 605.019531 Z M 999.980469 930.578125 C 997.5 930.578125 995.050781 930.089844 992.746094 929.089844 C 805.695312 847.699219 791.148438 730.910156 791.148438 697.019531 C 791.148438 625.070312 840.996094 568.691406 904.648438 568.691406 C 951.054688 568.691406 982.808594 591.21875 999.980469 608 C 1017.148438 591.21875 1048.910156 568.691406 1095.320312 568.691406 C 1158.96875 568.691406 1208.820312 625.070312 1208.820312 697.019531 C 1208.820312 730.910156 1194.269531 847.699219 1007.21875 929.089844 C 1004.910156 930.089844 1002.46875 930.578125 999.980469 930.578125" fill="#00dd6e"/></g><g id="change2_1"><path d="M 1386 902.980469 C 1375.960938 902.980469 1367.828125 894.859375 1367.828125 884.808594 L 1367.828125 442.421875 L 632.164062 442.421875 L 632.164062 884.808594 C 632.164062 894.859375 624.039062 902.980469 614 902.980469 C 603.957031 902.980469 595.832031 894.859375 595.832031 884.808594 L 595.832031 424.25 C 595.832031 414.210938 603.957031 406.089844 614 406.089844 L 1386 406.089844 C 1396.039062 406.089844 1404.171875 414.210938 1404.171875 424.25 L 1404.171875 884.808594 C 1404.171875 894.859375 1396.039062 902.980469 1386 902.980469" fill="#131212"/></g><g id="change2_2"><path d="M 809.3125 1144.058594 C 805.871094 1144.058594 802.394531 1143.109375 799.308594 1141.050781 L 460.550781 917.238281 C 452.78125 912.128906 450.152344 901.949219 454.445312 893.71875 L 518.628906 770.25 C 523.242188 761.308594 534.3125 757.800781 543.109375 762.519531 C 552.015625 767.128906 555.492188 778.089844 550.84375 787 L 494.21875 895.960938 L 819.320312 1110.75 C 827.691406 1116.28125 830 1127.53125 824.464844 1135.898438 C 820.988281 1141.191406 815.203125 1144.058594 809.3125 1144.058594" fill="#131212"/></g><g id="change2_3"><path d="M 1190.648438 1144.058594 C 1184.761719 1144.058594 1178.980469 1141.191406 1175.5 1135.898438 C 1169.960938 1127.53125 1172.269531 1116.28125 1180.640625 1110.75 L 1505.78125 895.960938 L 1449.148438 787 C 1444.511719 778.089844 1447.980469 767.128906 1456.890625 762.519531 C 1465.71875 757.800781 1476.761719 761.308594 1481.371094 770.25 L 1545.550781 893.71875 C 1549.851562 901.949219 1547.21875 912.128906 1539.449219 917.238281 L 1200.660156 1141.050781 C 1197.570312 1143.109375 1194.089844 1144.058594 1190.648438 1144.058594" fill="#131212"/></g><g id="change2_4"><path d="M 1529.449219 1593.910156 L 470.554688 1593.910156 C 460.515625 1593.910156 452.390625 1585.789062 452.390625 1575.75 L 452.390625 902.089844 C 452.390625 892.050781 460.515625 883.929688 470.554688 883.929688 C 480.597656 883.929688 488.71875 892.050781 488.71875 902.089844 L 488.71875 1557.578125 L 1511.28125 1557.578125 L 1511.28125 902.089844 C 1511.28125 892.050781 1519.398438 883.929688 1529.449219 883.929688 C 1539.488281 883.929688 1547.609375 892.050781 1547.609375 902.089844 L 1547.609375 1575.75 C 1547.609375 1585.789062 1539.488281 1593.910156 1529.449219 1593.910156" fill="#131212"/></g><g id="change2_5"><path d="M 470.554688 1593.910156 C 465.90625 1593.910156 461.257812 1592.140625 457.746094 1588.621094 C 450.613281 1581.53125 450.613281 1570.03125 457.675781 1562.941406 L 987.101562 1031.808594 C 993.914062 1024.921875 1006.050781 1024.921875 1012.859375 1031.808594 L 1542.320312 1562.941406 C 1549.378906 1570.03125 1549.378906 1581.53125 1542.25 1588.621094 C 1535.230469 1595.648438 1523.660156 1595.71875 1516.570312 1588.550781 L 999.980469 1070.339844 L 483.433594 1588.550781 C 479.886719 1592.140625 475.203125 1593.910156 470.554688 1593.910156" fill="#131212"/></g></g></svg>