<?xml version="1.0" encoding="UTF-8" standalone="no"?><svg xmlns="http://www.w3.org/2000/svg" xmlns:xlink="http://www.w3.org/1999/xlink" data-name="Layer 3" fill="#a6a6a6" height="25" preserveAspectRatio="xMidYMid meet" version="1" viewBox="9.8 11.5 28.5 25.0" width="28.5" zoomAndPan="magnify"><g id="change1_1"><path d="M20.4707,27.75h9.25V31a.75.75,0,0,0,1.28.53l7-7a.75.75,0,0,0,0-1.0606l-7-7a.7791.7791,0,0,0-.8174-.1626A.75.75,0,0,0,29.7207,17v3.25h-9.25a.75.75,0,0,0-.75.75v6A.75.75,0,0,0,20.4707,27.75Z" fill="inherit"/></g><g id="change1_2"><path d="M23.377,36.5l-9.004,0A4.5525,4.5525,0,0,1,9.7793,32V16a4.5525,4.5525,0,0,1,4.5937-4.5l9.004,0A4.5525,4.5525,0,0,1,27.9707,16v1a1.5,1.5,0,0,1-3,0V16a1.5507,1.5507,0,0,0-1.5937-1.5l-9.004,0A1.5506,1.5506,0,0,0,12.7793,16V32a1.5507,1.5507,0,0,0,1.5937,1.5l9.004,0A1.5506,1.5506,0,0,0,24.9707,32V31a1.5,1.5,0,1,1,3,0v1A4.5525,4.5525,0,0,1,23.377,36.5Z" fill="inherit"/></g></svg>