<?xml version="1.0" encoding="UTF-8" standalone="no"?><svg xmlns="http://www.w3.org/2000/svg" xmlns:xlink="http://www.w3.org/1999/xlink" fill="#000000" height="44" preserveAspectRatio="xMidYMid meet" version="1" viewBox="0.0 0.0 44.0 44.0" width="44" zoomAndPan="magnify"><g id="change1_1"><path d="M 21.359375 13.019531 C 19.816406 12.066406 17.894531 10.878906 17.894531 8.753906 C 17.878906 7.019531 19.082031 5.511719 20.777344 5.140625 L 20.777344 3.730469 L 23.222656 3.730469 L 23.222656 5.175781 C 24.933594 5.710938 26.101562 7.296875 26.105469 9.09375 L 23.660156 9.09375 C 23.660156 8.175781 22.917969 7.433594 22 7.433594 C 21.722656 7.433594 20.339844 7.496094 20.339844 8.753906 C 20.339844 9.515625 21.511719 10.238281 22.644531 10.9375 C 24.183594 11.890625 26.105469 13.078125 26.105469 15.199219 C 26.121094 16.933594 24.917969 18.445312 23.222656 18.816406 L 23.222656 20.222656 L 20.777344 20.222656 L 20.777344 18.78125 C 19.0625 18.242188 17.898438 16.65625 17.894531 14.859375 L 20.339844 14.859375 C 20.339844 15.777344 21.082031 16.523438 22 16.523438 C 22.277344 16.523438 23.660156 16.460938 23.660156 15.199219 C 23.660156 14.441406 22.488281 13.71875 21.359375 13.019531 Z M 22 23.957031 C 28.613281 23.957031 33.976562 18.59375 33.976562 11.976562 C 33.976562 5.363281 28.613281 0 22 0 C 15.386719 0 10.023438 5.363281 10.023438 11.976562 C 10.03125 18.589844 15.386719 23.949219 22 23.957031 Z M 35.199219 33.242188 L 8.800781 33.242188 L 8.800781 30.308594 L 35.199219 30.308594 Z M 41.066406 20.53125 L 33.601562 20.53125 C 28.886719 26.941406 19.867188 28.3125 13.460938 23.597656 C 12.292969 22.734375 11.257812 21.703125 10.398438 20.53125 L 2.933594 20.53125 C 1.3125 20.53125 0 21.847656 0 23.46875 L 0 41.066406 C 0 42.6875 1.3125 44 2.933594 44 L 41.066406 44 C 42.683594 44 44 42.6875 44 41.066406 L 44 23.46875 C 44 21.847656 42.683594 20.53125 41.066406 20.53125" fill="#00dd6e"/></g></svg>